<svg xmlns="http://www.w3.org/2000/svg" viewBox="0 0 1024 1024">
  <path d="M512 128c-35.3 0-64 28.7-64 64v32H288c-53 0-96 43-96 96v384c0 53 43 96 96 96h448c53 0 96-43 96-96V320c0-53-43-96-96-96H576v-32c0-35.3-28.7-64-64-64zM320 416a64 64 0 1 1 0 128 64 64 0 0 1 0-128zm384 0a64 64 0 1 1 0 128 64 64 0 0 1 0-128zM352 640h320c17.7 0 32 14.3 32 32s-14.3 32-32 32H352c-17.7 0-32-14.3-32-32s14.3-32 32-32zM192 448a48 48 0 0 0-48 48v64a48 48 0 1 0 96 0v-64a48 48 0 0 0-48-48zm640 0a48 48 0 0 0-48 48v64a48 48 0 1 0 96 0v-64a48 48 0 0 0-48-48z"/>
</svg>
